<?xml version="1.0" standalone="no"?>
<!DOCTYPE svg PUBLIC "-//W3C//DTD SVG 20010904//EN"
 "http://www.w3.org/TR/2001/REC-SVG-20010904/DTD/svg10.dtd">
<svg version="1.0" xmlns="http://www.w3.org/2000/svg"
 width="200.000000pt" height="200.000000pt" viewBox="0 0 200.000000 200.000000"
 preserveAspectRatio="xMidYMid meet">

<g transform="translate(0.000000,200.000000) scale(0.100000,-0.100000)"
fill="#000000" stroke="none">
<path d="M0 1005 l0 -985 1000 0 1000 0 0 985 0 985 -1000 0 -1000 0 0 -985z
m1136 924 c66 -11 123 -24 129 -30 5 -5 16 -9 25 -9 15 0 144 -61 195 -93 62
-38 225 -188 225 -207 0 -4 7 -13 16 -21 8 -7 24 -29 34 -50 11 -20 25 -43 32
-50 18 -19 50 -106 91 -244 16 -53 16 -357 0 -410 -35 -118 -74 -227 -84 -235
-11 -9 -89 -142 -89 -151 0 -5 -5 -9 -10 -9 -6 0 -29 -19 -53 -43 -68 -68
-127 -116 -171 -140 -22 -12 -43 -24 -46 -27 -3 -3 -25 -15 -50 -27 -41 -19
-77 -32 -220 -75 -56 -16 -341 -18 -361 -2 -8 6 -31 14 -51 18 -47 8 -188 64
-209 82 -8 8 -19 14 -24 14 -17 0 -134 92 -191 152 -62 64 -135 164 -166 228
-33 69 -58 129 -58 142 0 7 -8 33 -17 58 -23 65 -23 375 0 440 9 25 17 51 17
58 0 15 31 88 62 147 43 82 95 151 168 226 145 148 279 218 500 259 126 24
165 24 306 -1z"/>
<path d="M542 1379 c-86 -43 -185 -176 -217 -289 -4 -14 -11 -29 -15 -35 -5
-5 -11 -37 -14 -70 -5 -45 -4 -54 4 -37 25 59 75 113 126 137 62 29 89 31 135
8 81 -41 156 -157 166 -260 7 -64 18 -74 113 -98 81 -21 259 -16 337 9 44 14
54 21 58 44 24 123 55 195 110 255 35 38 91 67 130 67 67 0 158 -70 190 -145
7 -19 21 -35 29 -35 20 0 21 16 1 24 -8 3 -15 15 -15 26 0 24 -33 126 -62 190
-35 77 -89 145 -147 186 l-56 39 -103 0 c-64 0 -105 -4 -110 -11 -4 -6 -21
-18 -38 -27 -37 -19 -110 -90 -144 -140 -14 -20 -29 -37 -35 -37 -5 0 -21 19
-35 41 -33 54 -63 83 -135 132 -57 39 -65 41 -145 45 -72 3 -91 0 -128 -19z"/>
<path d="M246 857 c-25 -19 -24 -67 3 -88 40 -33 98 7 86 59 -8 40 -54 54 -89
29z"/>
<path d="M1658 859 c-12 -6 -18 -22 -18 -45 0 -30 5 -37 32 -48 40 -17 53 -12
68 25 23 55 -30 99 -82 68z"/>
</g>
</svg>
