<?xml version="1.0" standalone="no"?>
<!DOCTYPE svg PUBLIC "-//W3C//DTD SVG 20010904//EN"
 "http://www.w3.org/TR/2001/REC-SVG-20010904/DTD/svg10.dtd">
<svg version="1.0" xmlns="http://www.w3.org/2000/svg"
 width="1000.000000pt" height="846.000000pt" viewBox="0 0 1000.000000 846.000000"
 preserveAspectRatio="xMidYMid meet">

<g transform="translate(0.000000,846.000000) scale(0.100000,-0.100000)"
fill="#000000" stroke="none">
<path d="M245 8448 c-11 -33 -197 -879 -194 -882 2 -2 96 -14 209 -25 326 -34
461 -80 576 -195 83 -83 107 -146 107 -276 -1 -87 -42 -286 -467 -2285 -257
-1204 -470 -2200 -473 -2213 l-5 -22 1857 0 1858 0 -7 -53 c-23 -191 -28 -301
-23 -477 10 -347 73 -607 213 -880 242 -470 681 -814 1244 -975 155 -44 474
-109 640 -130 487 -61 1026 -32 1480 81 959 238 1589 945 1888 2119 23 88 221
991 441 2007 220 1016 403 1859 407 1873 l6 25 -1569 0 -1568 0 -98 -437 c-54
-241 -97 -443 -97 -449 0 -6 71 -17 188 -27 313 -27 480 -84 599 -202 51 -52
64 -72 82 -129 41 -132 40 -135 -175 -1144 -107 -504 -209 -973 -226 -1042
-140 -569 -346 -775 -758 -757 -188 9 -299 47 -393 136 -63 59 -98 121 -123
211 -26 95 -24 309 4 460 12 63 181 849 375 1745 l353 1630 -1604 3 c-883 1
-1607 1 -1609 -1 -1 -2 -46 -194 -98 -428 -52 -233 -97 -433 -100 -444 -4 -20
4 -22 188 -38 315 -27 483 -83 598 -198 120 -120 135 -258 62 -566 l-5 -23
-724 0 c-398 0 -724 3 -724 6 0 3 191 905 425 2004 234 1099 425 2001 425
2004 0 3 -716 6 -1590 6 -1264 0 -1592 -3 -1595 -12z m2655 -427 c0 -4 -191
-907 -425 -2005 -234 -1099 -425 -2000 -425 -2002 0 -2 -72 -4 -160 -4 -88 0
-160 2 -160 4 0 2 187 883 416 1958 228 1074 420 1977 426 2006 l11 52 158 0
c88 0 159 -4 159 -9z m3163 -2321 c-1 -8 -140 -651 -308 -1429 -168 -777 -313
-1461 -321 -1520 -8 -58 -15 -171 -15 -251 -1 -273 61 -469 203 -648 121 -151
365 -285 564 -308 102 -12 66 -24 -74 -24 -220 0 -382 35 -543 117 -253 129
-410 358 -460 671 -15 98 -12 323 6 448 13 88 612 2884 631 2947 5 16 19 17
162 15 133 -3 157 -5 155 -18z m3404 -2 c-3 -13 -162 -743 -352 -1623 -190
-880 -362 -1661 -381 -1735 -99 -383 -249 -740 -417 -990 -163 -243 -364 -442
-583 -578 -362 -224 -881 -346 -1456 -341 l-143 2 145 13 c431 40 701 109 985
249 172 85 290 166 424 292 325 302 564 745 720 1333 17 63 186 833 376 1710
190 877 350 1616 356 1643 l11 47 160 0 160 0 -5 -22z"/>
</g>
</svg>
