<?xml version="1.0" standalone="no"?>
<!DOCTYPE svg PUBLIC "-//W3C//DTD SVG 20010904//EN"
 "http://www.w3.org/TR/2001/REC-SVG-20010904/DTD/svg10.dtd">
<svg version="1.0" xmlns="http://www.w3.org/2000/svg"
 width="900.000000pt" height="900.000000pt" viewBox="0 0 900.000000 900.000000"
 preserveAspectRatio="xMidYMid meet">

<g transform="translate(0.000000,900.000000) scale(0.100000,-0.100000)"
fill="#000000" stroke="none">
<path d="M3036 7191 c-4 -5 1 -8 9 -7 21 3 31 16 12 16 -9 0 -18 -4 -21 -9z"/>
<path d="M3010 7101 c0 -10 19 -25 25 -20 1 2 -3 10 -11 17 -8 7 -14 8 -14 3z"/>
<path d="M2975 7090 c3 -5 8 -10 11 -10 2 0 4 5 4 10 0 6 -5 10 -11 10 -5 0
-7 -4 -4 -10z"/>
<path d="M2907 7028 c-9 -6 -9 -8 1 -8 6 0 12 -5 12 -11 0 -6 -6 -9 -14 -6 -8
3 -21 -4 -30 -18 -16 -24 -21 -55 -10 -55 11 0 74 73 74 87 0 8 5 11 10 8 6
-3 10 -2 10 4 0 11 -35 11 -53 -1z"/>
<path d="M2970 6966 c0 -2 7 -7 16 -10 8 -3 12 -2 9 4 -6 10 -25 14 -25 6z"/>
<path d="M4568 6943 c6 -2 18 -2 25 0 6 3 1 5 -13 5 -14 0 -19 -2 -12 -5z"/>
<path d="M4888 6943 c6 -2 18 -2 25 0 6 3 1 5 -13 5 -14 0 -19 -2 -12 -5z"/>
<path d="M2908 6930 c-2 -7 -21 -14 -42 -14 -37 -2 -67 -25 -65 -50 0 -6 3 -5
6 1 3 10 8 9 20 -2 8 -8 19 -12 25 -9 7 4 8 2 4 -4 -5 -9 -13 -9 -26 -2 -24
13 -60 -18 -60 -52 0 -12 -3 -18 -7 -15 -7 8 -43 -47 -43 -65 0 -9 3 -9 12 0
7 7 16 12 22 12 5 0 -1 -9 -14 -20 -13 -11 -27 -20 -32 -20 -4 0 -7 -3 -6 -7
1 -5 -5 -22 -15 -40 -9 -17 -26 -55 -37 -85 -11 -29 -25 -62 -30 -73 -15 -34
-67 -215 -89 -310 -52 -232 -66 -556 -36 -815 70 -611 337 -1151 781 -1580
314 -303 643 -495 1078 -630 86 -27 330 -76 419 -85 l67 -7 0 854 0 855 -82
12 c-168 24 -351 95 -491 190 -207 139 -351 330 -431 571 -48 144 -60 250 -51
440 4 85 8 174 8 197 1 23 4 37 8 32 6 -10 19 38 19 70 0 14 -2 14 -10 1 -5
-8 -10 -10 -10 -5 0 20 18 37 30 30 10 -6 12 -2 8 13 -4 12 -2 20 3 16 5 -3 9
1 9 8 0 7 11 34 25 60 24 46 34 78 15 48 -9 -13 -10 -13 -10 1 0 20 -23 69
-32 69 -11 0 -10 -14 2 -26 14 -14 23 -84 11 -84 -14 0 -21 28 -8 33 8 2 8 5
-1 11 -7 4 -12 2 -12 -3 0 -6 -18 -11 -40 -11 -22 0 -40 -4 -40 -10 0 -11 12
-13 47 -10 28 2 54 -22 43 -39 -6 -10 -9 -10 -15 -1 -4 6 -18 9 -34 5 -22 -5
-31 0 -49 25 -15 19 -31 30 -47 30 -20 0 -25 5 -25 23 0 36 -30 57 -82 57 -39
0 -46 3 -58 28 -12 25 -13 26 -20 7 -8 -18 -9 -17 -21 10 -14 36 -49 55 -101
55 -29 0 -38 4 -38 16 0 26 -31 43 -77 44 -24 0 -43 4 -43 9 0 5 -9 13 -20 16
-11 3 -20 11 -20 17 0 16 -32 37 -57 38 -13 0 -23 6 -23 13 0 6 -18 21 -40 31
-22 11 -40 23 -40 28 0 4 -6 8 -14 8 -8 0 -23 13 -32 29 -10 16 -29 35 -43 43
-14 7 -29 17 -32 22 -4 4 -8 3 -11 -4z m-53 -49 c-6 -5 -25 10 -25 20 0 5 6 4
14 -3 8 -7 12 -15 11 -17z m105 -21 c0 -11 -4 -20 -10 -20 -5 0 -10 9 -10 20
0 11 5 20 10 20 6 0 10 -9 10 -20z m-163 -52 c-3 -7 -5 -2 -5 12 0 14 2 19 5
13 2 -7 2 -19 0 -25z m-40 -60 c-3 -8 -6 -5 -6 6 -1 11 2 17 5 13 3 -3 4 -12
1 -19z m33 -58 c0 -5 -5 -10 -11 -10 -5 0 -7 5 -4 10 3 6 8 10 11 10 2 0 4 -4
4 -10z m1020 -361 c-7 -11 -14 -19 -16 -16 -7 7 7 37 17 37 6 0 5 -9 -1 -21z"/>
<path d="M4508 6933 c7 -3 16 -2 19 1 4 3 -2 6 -13 5 -11 0 -14 -3 -6 -6z"/>
<path d="M4958 6933 c7 -3 16 -2 19 1 4 3 -2 6 -13 5 -11 0 -14 -3 -6 -6z"/>
<path d="M4115 6740 c-3 -6 1 -7 9 -4 18 7 21 14 7 14 -6 0 -13 -4 -16 -10z"/>
<path d="M4054 6678 l-19 -23 23 19 c21 18 27 26 19 26 -2 0 -12 -10 -23 -22z"/>
<path d="M3947 6553 c-4 -3 -7 -11 -7 -17 0 -6 5 -5 12 2 6 6 9 14 7 17 -3 3
-9 2 -12 -2z"/>
<path d="M3915 6526 c-10 -11 -19 -56 -11 -56 2 0 11 10 19 23 16 25 10 54 -8
33z"/>
<path d="M6423 6340 c0 -36 2 -50 4 -32 2 17 2 47 0 65 -2 17 -4 3 -4 -33z"/>
<path d="M6422 6170 c0 -19 2 -27 5 -17 2 9 2 25 0 35 -3 9 -5 1 -5 -18z"/>
<path d="M6381 5904 c0 -11 3 -14 6 -6 3 7 2 16 -1 19 -3 4 -6 -2 -5 -13z"/>
<path d="M5470 5720 c-9 -6 -10 -10 -3 -10 6 0 15 5 18 10 8 12 4 12 -15 0z"/>
<path d="M5435 5661 c-6 -5 -19 -11 -30 -13 -14 -2 -20 -12 -22 -33 -2 -25 0
-27 8 -12 6 9 7 22 4 27 -3 5 0 7 8 4 8 -3 18 0 22 5 3 6 11 9 16 6 5 -4 9 1
9 9 0 18 -2 19 -15 7z"/>
<path d="M5328 5590 c-22 -22 -26 -30 -14 -30 9 0 16 7 16 15 0 14 12 19 33
16 4 0 7 6 7 14 0 21 -6 19 -42 -15z"/>
<path d="M5405 5580 c-3 -5 1 -10 9 -10 8 0 18 5 21 10 3 6 -1 10 -9 10 -8 0
-18 -4 -21 -10z"/>
<path d="M5360 5569 c0 -5 -5 -7 -12 -3 -7 4 -8 3 -4 -4 4 -7 1 -12 -8 -12 -9
0 -16 -4 -16 -10 0 -5 7 -10 15 -10 8 0 15 -4 15 -10 0 -5 -16 -9 -35 -8 -29
1 -34 4 -29 20 7 22 -7 23 -46 3 -31 -16 -41 -29 -16 -19 8 3 17 1 21 -5 6
-11 -12 -16 -45 -13 -8 1 -39 -8 -68 -20 -39 -15 -50 -23 -40 -30 9 -6 6 -7
-9 -3 -11 3 -67 -6 -123 -20 -57 -14 -106 -25 -109 -26 -3 0 3 -4 14 -9 14 -6
15 -9 5 -9 -14 -1 -16 -39 -19 -302 l-3 -302 84 7 c215 18 370 48 533 106 104
36 135 51 130 61 -3 4 0 11 6 15 8 4 9 3 5 -4 -12 -20 11 -13 81 24 89 48 104
59 95 69 -4 5 -1 5 6 1 14 -8 75 31 67 44 -3 4 2 7 10 6 13 -1 163 122 164
136 2 14 -48 -18 -53 -34 -5 -21 -42 -24 -49 -5 -2 6 3 17 12 24 21 15 9 27
-18 18 -28 -9 -26 -29 5 -54 15 -12 24 -22 20 -22 -3 -1 -10 -2 -15 -3 -5 0
-12 -4 -16 -8 -4 -4 -13 -4 -19 -2 -7 3 -19 -2 -26 -11 -11 -13 -10 -14 5 -9
11 5 16 4 12 -3 -3 -5 -20 -10 -37 -11 l-31 -1 25 20 c15 11 26 28 26 38 0 20
-29 63 -30 44 0 -18 -25 -16 -44 2 -8 8 -17 15 -21 15 -4 0 -23 18 -44 40 -33
36 -42 40 -84 40 -26 0 -47 5 -47 10 0 6 12 10 28 10 15 0 34 5 42 10 13 9 13
11 0 20 -24 15 -70 12 -70 -5 0 -19 -2 -19 -45 2 -45 21 -44 31 3 36 20 2 6 3
-32 3 -62 -1 -71 1 -81 20 -6 12 -17 29 -24 38 -12 14 -11 16 5 16 16 0 17 2
4 11 -11 8 -12 12 -2 16 27 11 10 21 -18 10 -16 -6 -30 -17 -30 -24 0 -8 -12
-13 -32 -12 -18 0 -26 3 -18 6 26 11 40 29 29 40 -7 7 -5 16 5 26 18 18 20 27
6 27 -5 0 -10 -5 -10 -11z m-210 -113 c0 -11 -19 -15 -25 -6 -3 5 1 10 9 10 9
0 16 -2 16 -4z m619 -412 c14 -12 -19 -1 -35 12 -18 14 -18 14 6 3 14 -6 27
-13 29 -15z"/>
<path d="M5385 5540 c3 -5 13 -10 21 -10 8 0 14 5 14 10 0 6 -9 10 -21 10 -11
0 -17 -4 -14 -10z"/>
<path d="M6013 5365 c-7 -8 -9 -16 -5 -19 4 -3 13 4 20 15 14 22 3 25 -15 4z"/>
<path d="M5815 5288 c-10 -21 -16 -40 -13 -44 3 -3 26 -4 49 -2 l44 3 -26 25
c-14 14 -28 32 -31 40 -4 10 -11 3 -23 -22z"/>
<path d="M6079 5303 c-13 -16 -12 -17 4 -4 9 7 17 15 17 17 0 8 -8 3 -21 -13z"/>
<path d="M6040 5295 c-6 -8 -9 -19 -5 -25 11 -18 23 -11 23 15 0 29 -2 30 -18
10z"/>
<path d="M5968 5243 c7 -3 16 -2 19 1 4 3 -2 6 -13 5 -11 0 -14 -3 -6 -6z"/>
<path d="M7282 2103 l3 -538 24 -43 c14 -23 41 -52 60 -63 40 -23 129 -35 185
-25 35 7 36 8 30 44 -13 92 -12 92 -54 92 -22 0 -47 8 -61 19 l-24 19 -3 516
-3 516 -80 0 -80 0 3 -537z"/>
<path d="M2964 2586 c-86 -86 8 -216 120 -165 34 16 60 72 52 114 -9 45 -57
85 -103 85 -27 0 -43 -8 -69 -34z"/>
<path d="M5114 2601 c-57 -35 -66 -117 -17 -163 19 -18 36 -23 75 -23 42 0 53
4 74 28 17 20 24 40 24 68 0 51 -13 75 -50 94 -39 20 -69 19 -106 -4z"/>
<path d="M7685 2606 c-126 -55 -140 -255 -23 -326 138 -84 307 27 283 186 -17
117 -149 188 -260 140z m154 -34 c50 -25 74 -63 78 -124 12 -162 -195 -233
-285 -98 -20 30 -23 45 -20 97 4 66 18 91 73 124 38 24 109 24 154 1z"/>
<path d="M7690 2434 c0 -95 2 -105 18 -102 12 2 17 13 17 38 0 51 27 52 60 1
16 -26 33 -41 45 -41 24 0 26 13 5 30 -25 21 -28 48 -6 72 26 28 26 48 0 82
-18 23 -28 26 -80 26 l-59 0 0 -106z m110 55 c16 -29 -5 -51 -44 -47 -25 2
-31 8 -32 28 -1 35 3 40 36 40 19 0 33 -7 40 -21z"/>
<path d="M1380 2020 c0 -563 0 -570 20 -571 11 0 48 0 83 -1 l62 0 3 201 2
201 138 0 c268 1 394 57 469 209 24 50 27 67 27 161 1 87 -3 113 -21 152 -49
106 -160 187 -284 208 -35 5 -162 10 -281 10 l-218 0 0 -570z m545 385 c32
-20 57 -45 73 -75 21 -39 23 -55 20 -122 -6 -98 -35 -145 -114 -184 -49 -24
-64 -26 -201 -27 l-148 -2 -3 223 -2 224 163 -4 c162 -3 164 -3 212 -33z"/>
<path d="M2647 2290 c-51 -9 -120 -45 -151 -79 -27 -30 -33 -27 -40 24 l-7 45
-65 0 -64 0 0 -415 c0 -270 4 -415 10 -416 6 0 40 0 78 -1 l67 0 5 278 c5 297
6 300 59 357 44 49 78 61 168 61 45 1 83 3 86 6 2 3 7 33 11 67 7 60 6 63 -16
67 -55 11 -96 13 -141 6z"/>
<path d="M3650 2285 c-25 -8 -69 -33 -99 -55 -29 -23 -55 -39 -58 -36 -3 2 -7
23 -10 45 l-6 41 -68 0 -69 0 0 -414 0 -414 79 -4 79 -3 4 265 c3 263 3 265
30 322 61 132 223 167 328 72 54 -49 60 -88 60 -394 l0 -260 81 0 80 0 -3 313
c-3 304 -4 313 -27 365 -31 69 -106 137 -174 157 -62 18 -167 18 -227 0z"/>
<path d="M4515 2287 c-194 -65 -295 -213 -295 -430 1 -245 146 -409 375 -424
97 -7 174 8 254 48 85 43 87 46 45 112 l-36 57 -28 -20 c-45 -32 -107 -50
-174 -50 -84 0 -131 15 -177 58 -144 129 -125 391 34 482 92 52 196 47 304
-16 l41 -24 36 57 c42 70 39 75 -66 123 -64 30 -84 34 -173 37 -65 2 -114 -2
-140 -10z"/>
<path d="M5782 2285 c-49 -15 -85 -36 -125 -74 -24 -22 -29 -23 -37 -11 -5 8
-10 30 -10 48 l0 32 -70 0 -70 0 0 -585 0 -585 80 0 80 0 0 195 c0 107 3 195
6 195 3 0 36 -15 73 -32 60 -30 74 -33 161 -33 82 0 103 4 152 27 153 71 236
236 225 448 -9 196 -98 332 -245 376 -57 17 -163 17 -220 -1z m139 -137 c101
-30 163 -130 163 -263 0 -148 -54 -254 -149 -291 -88 -33 -232 -3 -284 60 -19
23 -17 320 3 367 45 108 156 161 267 127z"/>
<path d="M6565 2286 c-33 -8 -76 -21 -95 -29 -19 -8 -43 -17 -52 -20 -16 -6
-16 -11 7 -69 13 -35 27 -62 32 -60 4 1 40 13 78 27 51 18 91 25 149 25 135 0
201 -49 207 -155 4 -58 13 -54 -123 -41 -236 23 -395 -79 -406 -260 -7 -109
39 -187 143 -242 45 -24 61 -27 150 -27 89 0 106 3 150 26 28 15 62 39 77 54
l27 27 23 -36 c34 -53 94 -79 168 -74 33 2 62 7 66 11 3 3 3 33 -1 66 l-7 60
-35 -1 c-27 -1 -41 5 -55 21 -16 21 -18 44 -18 250 0 189 -3 234 -17 274 -24
67 -73 121 -141 154 -50 24 -70 28 -162 30 -63 2 -129 -3 -165 -11z m314 -450
c17 -11 13 -123 -5 -159 -27 -53 -66 -87 -118 -102 -66 -20 -102 -19 -153 5
-72 32 -103 112 -69 178 37 71 96 93 233 88 56 -2 106 -7 112 -10z"/>
<path d="M2950 1865 l0 -415 80 0 80 0 0 415 0 415 -80 0 -80 0 0 -415z"/>
<path d="M5090 1866 l0 -414 76 -4 c42 -2 78 -1 80 1 2 2 4 190 4 418 l0 413
-80 0 -80 0 0 -414z"/>
</g>
</svg>
